<svg width="24" height="25" viewBox="0 0 24 25" fill="none" xmlns="http://www.w3.org/2000/svg">
<path d="M17 2.02869H7C4.23858 2.02869 2 4.29932 2 7.10029V17.2435C2 20.0445 4.23858 22.3151 7 22.3151H17C19.7614 22.3151 22 20.0445 22 17.2435V7.10029C22 4.29932 19.7614 2.02869 17 2.02869Z" stroke="#E91E63" stroke-width="2" stroke-linecap="round" stroke-linejoin="round"/>
<path d="M16 11.5328C16.1234 12.377 15.9813 13.2391 15.5938 13.9966C15.2063 14.7541 14.5932 15.3684 13.8416 15.7521C13.0901 16.1357 12.2385 16.2693 11.4078 16.1337C10.5771 15.9981 9.80977 15.6003 9.21485 14.9969C8.61993 14.3935 8.22774 13.6151 8.09408 12.7725C7.96042 11.93 8.09208 11.0661 8.47034 10.3038C8.8486 9.54157 9.4542 8.91968 10.201 8.52663C10.9478 8.13358 11.7978 7.98939 12.63 8.11457C13.4789 8.24226 14.2649 8.6435 14.8717 9.25903C15.4785 9.87457 15.8741 10.6717 16 11.5328Z" stroke="#E91E63" stroke-width="2" stroke-linecap="round" stroke-linejoin="round"/>
<path d="M17.5 6.59302H17.51" stroke="#E91E63" stroke-width="2" stroke-linecap="round" stroke-linejoin="round"/>
</svg>
